<svg width="30" height="30" viewBox="0 0 30 30" fill="none" xmlns="http://www.w3.org/2000/svg">
<path d="M22.4955 27C21.147 27 20.5635 26.5335 19.6815 25.8285C18.6615 25.014 17.394 24 14.991 24C12.5895 24 11.322 25.014 10.3035 25.83C9.423 26.5335 8.841 27 7.4925 27C6.147 27 5.565 26.5335 4.6845 25.83C3.666 25.014 2.4015 24 0 24V27C1.347 27 1.929 27.4665 2.8095 28.17C3.828 28.986 5.094 30 7.4925 30C9.894 30 11.16 28.986 12.1785 28.1715C13.0605 27.4665 13.6425 27 14.991 27C16.341 27 16.9575 27.492 17.808 28.1715C18.8265 28.986 20.094 30 22.4955 30C24.897 30 26.1645 28.986 27.183 28.1715C28.0335 27.492 28.65 27 30 27V24C27.597 24 26.3295 25.014 25.3095 25.8285C24.4275 26.5335 23.844 27 22.4955 27ZM6 9.75L3 10.5L6 22.5H7.4925C9.894 22.5 11.16 21.486 12.1785 20.6715C13.0605 19.9665 13.6425 19.5 14.991 19.5C16.341 19.5 16.9575 19.992 17.808 20.6715C18.8265 21.486 20.094 22.5 22.4955 22.5H24L24.0405 22.3395L24.51 20.4615L27 10.5L24 9.75V4.5015C24.0001 4.1546 23.88 3.81838 23.6601 3.55008C23.4403 3.28178 23.1342 3.09799 22.794 3.03L16.5 1.7715V0H13.5V1.7715L7.206 3.03C6.86583 3.09799 6.55975 3.28178 6.33985 3.55008C6.11996 3.81838 5.99986 4.1546 6 4.5015V9.75ZM9 5.7285L15 4.5285L21 5.7285V9L15 7.5L9 9V5.7285Z" fill="white"/>
</svg>
