<svg width="30" height="30" viewBox="0 0 30 30" fill="none" xmlns="http://www.w3.org/2000/svg">
<path d="M10.625 20C11.6605 20 12.5 19.1605 12.5 18.125C12.5 17.0895 11.6605 16.25 10.625 16.25C9.58947 16.25 8.75 17.0895 8.75 18.125C8.75 19.1605 9.58947 20 10.625 20Z" fill="white"/>
<path d="M19.375 20C20.4105 20 21.25 19.1605 21.25 18.125C21.25 17.0895 20.4105 16.25 19.375 16.25C18.3395 16.25 17.5 17.0895 17.5 18.125C17.5 19.1605 18.3395 20 19.375 20Z" fill="white"/>
<path d="M23.5875 4.175C23.2111 3.69746 22.7406 3.30237 22.2052 3.01423C21.6698 2.72609 21.0809 2.55106 20.475 2.5H9.525C8.91453 2.54485 8.32047 2.71841 7.78187 3.00925C7.24327 3.30009 6.77233 3.70164 6.4 4.1875C5.56857 5.09928 5.07449 6.26831 5 7.5V22.5C5 22.8315 5.1317 23.1495 5.36612 23.3839C5.60054 23.6183 5.91848 23.75 6.25 23.75H8.75L6.25 27.5H9.15L10 26.25H20L20.85 27.5H23.75L21.25 23.75H23.75C24.0815 23.75 24.3995 23.6183 24.6339 23.3839C24.8683 23.1495 25 22.8315 25 22.5V7.5C24.9428 6.25823 24.4415 5.07829 23.5875 4.175V4.175ZM9.525 5H20.425C20.9249 5.12132 21.3669 5.41305 21.675 5.825C21.7883 5.95975 21.8927 6.10171 21.9875 6.25H7.9875C8.07777 6.09473 8.1824 5.94825 8.3 5.8125C8.59469 5.40041 9.03074 5.11119 9.525 5ZM7.5 10V8.75H22.5V12.5H7.5V10ZM22.5 21.25H7.5V15H22.5V21.25Z" fill="white"/>
</svg>
